<svg width="1259" height="1647" viewBox="0 0 1259 1647" fill="none" xmlns="http://www.w3.org/2000/svg">
<g clip-path="url(#clip0)">
<path d="M1259 1647L1259 0L0.00012207 -5.50326e-05L5.00777e-05 1647L1259 1647Z" fill="white"/>
<path d="M1224.03 823.5L1224.03 71.6087L34.9724 71.6087L34.9723 1575.39L1224.03 1575.39L1224.03 823.5L34.9724 823.5L1224.03 823.5Z" fill="white"/>
<path d="M1224.03 823.5L1224.03 71.6087L34.9724 71.6087L34.9723 1575.39L1224.03 1575.39L1224.03 823.5ZM1224.03 823.5L34.9724 823.5L1224.03 823.5Z" stroke="black" stroke-width="5"/>
<path d="M469.502 823.5C469.502 895.874 541.136 954.544 629.5 954.544C717.864 954.544 789.498 895.874 789.498 823.5C789.498 751.126 717.864 692.456 629.5 692.456C541.136 692.456 469.502 751.126 469.502 823.5Z" stroke="black" stroke-width="5"/>
<path d="M626.003 823.5C626.003 825.082 627.568 826.364 629.5 826.364C631.431 826.364 632.997 825.082 632.997 823.5C632.997 821.918 631.431 820.636 629.5 820.636C627.568 820.636 626.003 821.918 626.003 823.5Z" fill="black" stroke="black"/>
<path d="M626.003 229.148C626.003 230.73 627.569 232.012 629.5 232.012C631.432 232.012 632.997 230.73 632.997 229.148C632.997 227.566 631.432 226.283 629.5 226.283C627.569 226.283 626.003 227.566 626.003 229.148Z" fill="black" stroke="black"/>
<path d="M626.003 1417.85C626.003 1419.43 627.569 1420.72 629.5 1420.72C631.431 1420.72 632.997 1419.43 632.997 1417.85C632.997 1416.27 631.431 1414.99 629.5 1414.99C627.569 1414.99 626.003 1416.27 626.003 1417.85Z" fill="black" stroke="black"/>
<path d="M691.751 71.6087L691.751 57.2869L565.501 57.2869L565.501 71.6087L691.751 71.6087Z" stroke="black" stroke-width="5"/>
<path d="M691.751 1575.39L691.751 1589.71L565.501 1589.71L565.501 1575.39L691.751 1575.39Z" stroke="black" stroke-width="5"/>
<path d="M787.924 71.6086L787.924 150.378L469.327 150.378L469.327 71.6086L787.924 71.6086Z" stroke="black" stroke-width="5"/>
<path d="M787.924 1575.39L787.924 1496.62L469.327 1496.62L469.327 1575.39L787.924 1575.39Z" stroke="black" stroke-width="5"/>
<path d="M980.271 71.6087L980.271 307.917L276.98 307.917L276.98 71.6087L980.271 71.6087Z" stroke="black" stroke-width="5"/>
<path d="M980.271 1575.39L980.271 1339.08L276.98 1339.08L276.98 1575.39L980.271 1575.39Z" stroke="black" stroke-width="5"/>
<path d="M757.367 307.917C742.459 324.152 723.147 337.325 700.956 346.397C678.764 355.469 654.302 360.192 629.5 360.192C604.698 360.192 580.236 355.469 558.044 346.397C535.853 337.325 516.541 324.152 501.633 307.917L757.367 307.917Z" fill="white" stroke="black" stroke-width="5"/>
<path d="M757.367 1339.08C742.459 1322.85 723.147 1309.67 700.956 1300.6C678.764 1291.53 654.302 1286.81 629.5 1286.81C604.698 1286.81 580.236 1291.53 558.044 1300.6C535.853 1309.67 516.541 1322.85 501.633 1339.08L757.367 1339.08Z" fill="white" stroke="black" stroke-width="5"/>
<path d="M1206.54 71.6087C1206.54 75.4071 1208.38 79.0499 1211.66 81.7357C1214.94 84.4215 1219.39 85.9304 1224.03 85.9304L1224.03 71.6087L1206.54 71.6087Z" stroke="black" stroke-width="5"/>
<path d="M34.9724 85.9304C39.61 85.9304 44.0576 84.4215 47.3368 81.7356C50.6161 79.0498 52.4584 75.407 52.4584 71.6086L34.9724 71.6086L34.9724 85.9304Z" stroke="black" stroke-width="5"/>
<path d="M52.4585 1575.39C52.4585 1571.59 50.6162 1567.95 47.3369 1565.26C44.0576 1562.58 39.6099 1561.07 34.9723 1561.07L34.9723 1575.39L52.4585 1575.39Z" stroke="black" stroke-width="5"/>
<path d="M1224.03 1561.07C1219.39 1561.07 1214.94 1562.58 1211.66 1565.26C1208.38 1567.95 1206.54 1571.59 1206.54 1575.39L1224.03 1575.39L1224.03 1561.07Z" stroke="black" stroke-width="5"/>
</g>
<defs>
<clipPath id="clip0">
<rect width="1647" height="1259" fill="white" transform="translate(1259) rotate(90)"/>
</clipPath>
</defs>
</svg>
