<svg id="Capa_1" enable-background="new 0 0 512.07 512.07" height="512" viewBox="0 0 512.07 512.07" width="512" xmlns="http://www.w3.org/2000/svg"><g><g><path d="m430.071 92.235c-4.322 0-8.294-2.916-9.624-7.023-1.28-3.95.07-8.382 3.33-10.952 3.185-2.511 7.719-2.825 11.221-.779 3.427 2.002 5.453 5.915 5.011 9.87-.558 4.992-4.911 8.884-9.938 8.884z"/><path d="m495.264 347.23c4.997-13.122 8.888-26.592 11.662-40.263.123-.449.216-.909.276-1.377 12.925-65.541.184-135.568-39.741-193.906l-.275-.401c-3.125-4.554-9.349-5.711-13.903-2.589-4.554 3.125-5.712 9.35-2.588 13.903l.269.392c27.104 39.606 40.613 85.06 41.087 130.404-9.636-22.884-22.604-44.389-38.489-63.64-48.858-59.212-120.863-93.171-197.55-93.171-44.316 0-87.556 11.377-125.825 33.009-6.734-21.374-9.427-44.599-7.855-68.04 79.199-54.514 185.53-56.2 267.047-.237 4.552 3.126 10.778 1.969 13.904-2.584 3.126-4.554 1.969-10.778-2.584-13.904-101.521-69.696-238.498-56.983-325.708 30.225-47.832 47.833-74.405 111.259-74.971 178.816-.002.083-.002.167-.002.25-.005.651-.008 1.302-.008 1.953 0 68.38 26.629 132.667 74.98 181.02 48.352 48.352 112.639 74.98 181.02 74.98 68.38 0 132.667-26.629 181.02-74.98 25.798-25.798 45.076-55.965 57.628-88.286.246-.507.449-1.034.606-1.574zm-57.129-144.75c24.297 29.446 41.189 64.604 48.929 101.796-1.097 5.257-2.374 10.481-3.83 15.662-18.818-29.08-44.841-52.52-76.267-68.501-47.743-24.279-101.768-28.273-152.438-11.333-54.364-11.014-95.997-45.067-117.169-91.572 35.921-20.928 76.761-31.951 118.651-31.951 70.697 0 137.078 31.309 182.124 85.899zm-326.512 240.315c37.218-9.744 71.838-31.525 99.141-62.717 30.221-34.526 49.067-77.646 53.499-122.104 42.361-13.248 87.138-10.339 127.413 8.271-14.651 110.85-105.984 203.625-211.199 213.539-24.739-8.328-47.972-20.774-68.854-36.989zm-22.489-353.602c4.141-4.141 8.404-8.1 12.778-11.875.062 4.744.284 9.461.663 14.143.016.196.032.392.048.588.007.085.014.171.022.256 1.643 19.41 5.977 38.277 12.894 55.8.111.281.235.556.37.823 5.459 13.678 12.471 26.602 20.961 38.483 23.045 32.249 55.073 55.166 93.509 67.138-65.704 33.297-153.096 31.592-210.149-5.626 1.741-58.029 24.709-115.535 68.904-159.73zm-68.443 183.325c30.591 16.869 67.749 25.955 106.892 25.955 1.282 0 2.569-.01 3.855-.029 39.437-.6 78.043-10.265 110.819-27.512-14.117 77.589-76.087 143.119-149.575 155.49-1.192-1.144-2.375-2.303-3.547-3.475-41.833-41.832-64.647-95.589-68.444-150.429zm402.197 150.429c-44.575 44.575-103.839 69.123-166.877 69.123-9.338 0-18.594-.539-27.731-1.602 39.903-12.367 77.29-35.648 108.376-67.972 39.155-40.713 65.011-92.162 73.758-146.239 27.336 16.725 49.336 40.194 64.27 68.657-11.586 28.528-28.908 55.145-51.796 78.033z"/></g></g></svg>